# xmcd
#
# Track frame offsets: 
#        150
#        45419
#        78387
#        110025
#        144113
#        168973
#
# Disc length: 2733 seconds
#
# Revision: 0
# Processed by: cddbd v1.5.2PL0 Copyright (c) Steve Scherf et al.
# Submitted via: ExactAudioCopy v0.99pb4
#
DISCID=410aab06
DTITLE=Amenra - Mass III-II and Mass IIII
DYEAR=2009
DGENRE=Hardcore
TTITLE0=Your Shapeless. Pain
TTITLE1=Nemelendelle
TTITLE2=Am Kreuz
TTITLE3=Le Fils. Des Faux
TTITLE4=From Birth To Grave
TTITLE5=Ritual
EXTD=
EXTT0=
EXTT1=
EXTT2=
EXTT3=
EXTT4=
EXTT5=
PLAYORDER=
